<svg id="visual" viewBox="0 0 960 540" width="960" height="540" xmlns="http://www.w3.org/2000/svg" xmlns:xlink="http://www.w3.org/1999/xlink" version="1.1"><rect x="0" y="0" width="960" height="540" fill="#191414"></rect><path d="M533 0L516.5 6C500 12 467 24 451.3 36C435.7 48 437.3 60 450.2 72C463 84 487 96 479.2 108C471.3 120 431.7 132 414.2 144C396.7 156 401.3 168 416.5 180C431.7 192 457.3 204 468.2 216C479 228 475 240 459.3 252C443.7 264 416.3 276 413.3 288C410.3 300 431.7 312 450.3 324C469 336 485 348 474.8 360C464.7 372 428.3 384 421 396C413.7 408 435.3 420 447.8 432C460.3 444 463.7 456 457.5 468C451.3 480 435.7 492 425.3 504C415 516 410 528 407.5 534L405 540L0 540L0 534C0 528 0 516 0 504C0 492 0 480 0 468C0 456 0 444 0 432C0 420 0 408 0 396C0 384 0 372 0 360C0 348 0 336 0 324C0 312 0 300 0 288C0 276 0 264 0 252C0 240 0 228 0 216C0 204 0 192 0 180C0 168 0 156 0 144C0 132 0 120 0 108C0 96 0 84 0 72C0 60 0 48 0 36C0 24 0 12 0 6L0 0Z" fill="#1db954" stroke-linecap="round" stroke-linejoin="miter"></path></svg>